<svg width="2000" height="525" viewBox="0 0 2000 525" fill="none" xmlns="http://www.w3.org/2000/svg">
<g clip-path="url(#clip0)">
<path d="M138.134 40.8105H0V4.05502H138.134V40.8105Z" fill="#F1471D"/>
<path d="M1999.99 330.533H0V293.77H1999.99V330.533Z" fill="#F1471D"/>
<path d="M1745.44 40.8105H1607.32V4.05502H1745.44V40.8105Z" fill="#F1471D"/>
<path d="M0.119267 98.27H137.76V135.034H46.8946V200.552H138.492V237.33H0.103516V98.4354" fill="white"/>
<path d="M203.333 4.01424H250.133V200.552H340.722V237.33H203.333V4.01424" fill="white"/>
<path d="M434.644 200.552H456.707C478.438 200.552 504.844 195.209 504.844 168.136C504.844 137.719 480.107 133.038 456.707 133.038H434.644V200.552ZM434.644 98.27H453.695C473.426 98.27 497.824 93.9332 497.824 69.8556C497.824 42.7759 474.097 40.7799 452.697 40.7799H434.644V98.27ZM387.848 4.01424H469.415C499.497 4.01424 544.624 12.698 544.624 63.8352C544.624 91.5722 525.904 110.978 498.157 115.991V116.656C529.914 119.652 551.643 141.056 551.643 169.813C551.643 228.634 498.828 237.33 469.415 237.33H387.848V4.01424Z" fill="white"/>
<path d="M791.643 49.1287C773.594 40.7796 750.191 36.7734 731.483 36.7734C676.991 36.7734 646.905 73.5289 646.905 121.327C646.905 168.793 676.319 204.568 726.13 204.568C738.83 204.568 748.861 203.228 756.883 201.23V140.39H707.411V103.617H801.671V229.309C776.942 235.999 751.202 241.332 726.13 241.332C650.581 241.332 598.101 203.57 598.101 124.676C598.101 44.7938 646.905 -0.0103726 726.13 -0.0103726C753.204 -0.0103726 774.602 3.6712 794.653 9.69362L791.643 49.1287" fill="white"/>
<path d="M960.772 50.8145H960.107L926.347 147.076H994.536L960.772 50.8145ZM935.037 4.01424H987.854L1079.44 237.33H1027.63L1007.57 183.852H912.974L892.584 237.33H844.116L935.037 4.01424Z" fill="white"/>
<path d="M1169.67 103.617H1185.06C1208.11 103.617 1234.52 100.276 1234.52 71.1883C1234.52 43.1186 1208.46 40.7799 1185.06 40.7799H1169.67V103.617ZM1122.88 4.01424H1173.37C1223.51 4.01424 1283.34 2.32869 1283.34 67.174C1283.34 94.5885 1264.94 117.313 1235.19 121.327V122.015C1247.91 123.011 1255.26 135.711 1259.94 146.068L1297.38 237.33H1245.24L1217.16 164.456C1210.47 147.076 1204.45 140.391 1184.73 140.391H1169.67V237.33H1122.88V4.01424" fill="white"/>
<path d="M1395.33 200.552H1421.4C1460.51 200.552 1498.27 171.477 1498.27 120.672C1498.27 69.8556 1460.51 40.7799 1421.4 40.7799H1395.33V200.552ZM1348.53 4.01424H1412.36C1483.91 4.01424 1547.09 28.0696 1547.09 120.672C1547.09 213.252 1483.91 237.33 1412.36 237.33H1348.53V4.01424Z" fill="white"/>
<path d="M1808.12 4.01424H1865.63L1954.55 178.495H1955.22V4.01424H2000.01V237.33H1942.85L1853.6 62.8372H1852.93V237.33H1808.12V4.01424" fill="white"/>
<path d="M1607.41 98.27H1745.45V135.034H1654.22V200.552H1745.8V237.33H1607.41V98.4354V98.27Z" fill="white"/>
<path d="M921.48 398.748C914.958 395.409 907.524 393.591 900.088 393.591C888.408 393.591 874.749 399.06 874.749 413.319C874.749 431.679 913.742 433.646 913.742 460.962C913.742 482.505 894.022 494.034 874.749 494.034C860.942 494.034 852.748 490.851 848.046 488.278L851.227 478.264C857.453 482.505 866.25 484.939 873.839 484.939C888.102 484.939 903.274 478.715 903.274 462.333C903.274 440.323 864.282 438.514 864.282 414.08C864.282 393.446 881.426 384.489 900.088 384.489C909.044 384.489 917.238 386.004 924.67 389.191L921.48 398.748" fill="white"/>
<path d="M940.764 427.888C941.677 424.094 942.433 418.934 942.742 414.833H952.298C951.841 419.694 951.234 423.785 950.629 426.517H950.935C958.212 416.813 964.289 413.019 974.906 413.019C985.826 413.019 993.871 419.079 994.328 430.308H994.631C999.639 419.543 1008.6 413.019 1020.88 413.019C1034.23 413.019 1042.73 421.666 1042.73 435.767C1042.73 438.81 1041.67 444.721 1040.46 450.337L1031.65 492.226H1021.64L1030.29 451.258C1031.35 446.546 1032.26 441.994 1032.26 436.235C1032.26 427.733 1028.62 421.212 1019.37 421.212C1003.58 421.212 995.54 438.965 992.657 452.928L984.616 492.226H974.598L983.253 451.258C984.314 446.546 985.223 441.994 985.223 436.235C985.223 427.733 981.584 421.212 972.325 421.212C956.547 421.212 948.502 438.965 945.619 452.928L937.582 492.226H927.563L940.764 427.888Z" fill="white"/>
<path d="M1079.02 485.844C1096.92 485.844 1105.12 469.761 1107.24 453.52C1104.05 453.52 1101.02 453.224 1097.83 453.224C1084.93 453.224 1064 455.19 1064 472.195C1064 480.991 1071.29 485.844 1079.02 485.844V485.844ZM1113.31 473.862C1111.8 479.776 1110.73 486.905 1110.43 492.226H1100.86C1101.32 488.123 1101.63 484.175 1102.38 480.836H1102.08C1095.56 490.556 1087.06 494.034 1075.68 494.034C1063.69 494.034 1053.53 485.096 1053.53 472.35C1053.53 449.73 1079.02 445.034 1097.98 445.034C1101.93 445.034 1105.42 445.331 1108.46 445.643C1108.75 443.365 1108.91 441.087 1108.91 437.905C1108.91 427.281 1102.99 421.213 1092.38 421.213C1083.42 421.213 1074.62 425.3 1069.46 427.888L1070.52 418.17C1075.98 415.892 1084.78 413.019 1093.89 413.019C1110.58 413.019 1119.38 422.118 1119.38 438.201C1119.38 441.243 1118.77 446.861 1117.4 452.928L1113.31 473.862" fill="white"/>
<path d="M1145.95 428.638C1146.85 424.238 1147.62 419.694 1148.07 414.833H1157.63C1157.17 419.694 1156.72 423.785 1155.96 426.517H1156.26C1161.12 418.934 1167.79 413.019 1177.81 413.019C1181 413.019 1183.58 413.619 1186.15 414.079L1183.87 424.238C1181.3 423.178 1178.41 423.031 1175.68 423.031C1160.05 423.031 1153.83 440.181 1150.95 454.129L1143.06 492.226H1132.89L1145.95 428.638" fill="white"/>
<path d="M1210.89 397.532L1221.82 393.742L1217.12 414.833H1237.29L1235.32 423.031H1215.44L1207.25 461.273C1206.18 466.422 1204.98 471.428 1204.98 476.439C1204.98 482.505 1208.16 485.844 1213.77 485.844C1216.66 485.844 1219.24 485.235 1221.97 483.723L1221.06 491.911C1218.17 493.284 1215.29 494.034 1211.34 494.034C1200.58 494.034 1194.5 487.965 1194.5 479.62C1194.5 472.943 1197.24 460.663 1197.99 457.327L1205.43 423.031H1189.96L1192.08 414.833H1207.25L1210.89 397.532" fill="white"/>
<path d="M1379.93 399.664C1371.29 395.264 1361.28 393.591 1351.56 393.591C1321.06 393.591 1298.91 414.833 1298.91 445.94C1298.91 467.794 1314.39 484.939 1336.24 484.939C1347.31 484.939 1353.38 482.21 1356.88 480.54L1364.31 443.974H1338.97L1341.09 434.862H1377.05L1365.98 488.73C1362.03 489.792 1354.15 494.034 1337 494.034C1307.57 494.034 1288.44 474.471 1288.44 444.721C1288.44 409.216 1315.91 384.489 1350.35 384.489C1360.97 384.489 1371.75 385.853 1382.82 389.794L1379.93 399.664" fill="white"/>
<path d="M1415.3 485.844C1433.21 485.844 1441.4 469.761 1443.52 453.52C1440.33 453.52 1437.31 453.224 1434.12 453.224C1421.23 453.224 1400.28 455.19 1400.28 472.195C1400.28 480.991 1407.57 485.844 1415.3 485.844V485.844ZM1449.61 473.862C1448.08 479.776 1447.01 486.905 1446.72 492.226H1437.15C1437.61 488.123 1437.92 484.175 1438.67 480.836H1438.37C1431.85 490.556 1423.35 494.034 1411.97 494.034C1399.98 494.034 1389.81 485.096 1389.81 472.35C1389.81 449.73 1415.3 445.034 1434.27 445.034C1438.22 445.034 1441.71 445.331 1444.74 445.643C1445.05 443.365 1445.2 441.087 1445.2 437.905C1445.2 427.281 1439.28 421.213 1428.66 421.213C1419.7 421.213 1410.9 425.3 1405.75 427.888L1406.81 418.17C1412.27 415.892 1421.07 413.019 1430.18 413.019C1446.87 413.019 1455.67 422.118 1455.67 438.201C1455.67 441.243 1455.06 446.861 1453.69 452.928L1449.61 473.862" fill="white"/>
<path d="M1482.24 428.638C1483.14 424.238 1483.91 419.694 1484.36 414.833H1493.92C1493.46 419.694 1493.01 423.785 1492.25 426.517H1492.55C1497.41 418.934 1504.08 413.019 1514.1 413.019C1517.29 413.019 1519.87 413.619 1522.44 414.079L1520.17 424.238C1517.59 423.178 1514.7 423.031 1511.97 423.031C1496.35 423.031 1490.12 440.181 1487.25 454.129L1479.35 492.226H1469.18L1482.24 428.638" fill="white"/>
<path d="M1552.34 485.844C1569.64 485.844 1582.08 462.942 1582.08 445.782C1582.08 431.977 1575.71 421.213 1562.36 421.213C1542.48 421.213 1533.38 444.877 1533.38 462.787C1533.38 475.688 1538.99 485.844 1552.34 485.844V485.844ZM1585.87 477.045C1584.51 483.27 1583.6 488.574 1583.3 492.226H1573.44C1573.89 487.965 1574.8 482.957 1575.86 479.931H1575.56C1569.94 488.278 1562.21 494.034 1549.15 494.034C1530.49 494.034 1522.91 478.419 1522.91 460.962C1522.91 439.417 1537.02 413.019 1561.6 413.019C1572.83 413.019 1582.39 418.483 1585.27 429.106H1585.57L1596.2 378.42H1606.21L1585.87 477.045" fill="white"/>
<path d="M1666.15 448.061C1666.31 445.94 1666.62 443.974 1666.62 442.149C1666.62 429.56 1661.29 421.213 1648.86 421.213C1633.99 421.213 1623.06 433.957 1620.49 448.061H1666.15ZM1618.82 456.267C1618.51 458.23 1618.36 460.353 1618.36 462.474C1618.36 477.358 1628.22 485.844 1641.87 485.844C1651.44 485.844 1658.42 483.27 1664.48 480.697L1663.73 489.948C1659.18 491.617 1653.26 494.034 1640.66 494.034C1622.61 494.034 1608.8 483.27 1608.8 462.474C1608.8 436.532 1623.97 413.019 1648.86 413.019C1667.07 413.019 1676.17 424.239 1676.17 441.851C1676.17 446.546 1675.56 451.399 1675.1 456.267H1618.82" fill="white"/>
<path d="M1697.88 427.126C1698.79 421.961 1699.39 418.624 1699.71 414.833H1709.25C1708.8 419.694 1708.34 423.785 1707.58 426.517H1707.89C1713.2 418.325 1722.92 413.019 1732.48 413.019C1746.43 413.019 1756.75 420.902 1756.75 435.471C1756.75 440.776 1755.54 446.546 1754.47 451.399L1745.82 492.226H1735.82L1744.62 449.588C1745.68 444.583 1746.29 441.243 1746.29 436.08C1746.29 426.969 1741.12 421.212 1731.41 421.212C1714.72 421.212 1705.77 437.747 1702.13 455.502L1694.54 492.226H1684.53L1697.88 427.126" fill="white"/>
<path d="M1801.84 394.203H1790.45L1793.18 381.447H1804.57L1801.84 394.203ZM1786.82 414.833H1796.83L1780.43 492.226H1770.42L1786.82 414.833Z" fill="white"/>
<path d="M1818.98 427.126C1819.89 421.961 1820.5 418.624 1820.81 414.833H1830.36C1829.9 419.694 1829.45 423.785 1828.69 426.517H1829C1834.31 418.325 1844.02 413.019 1853.58 413.019C1867.53 413.019 1877.86 420.902 1877.86 435.471C1877.86 440.776 1876.64 446.546 1875.58 451.399L1866.93 492.226H1856.92L1865.72 449.588C1866.78 444.583 1867.39 441.243 1867.39 436.08C1867.39 426.969 1862.23 421.212 1852.51 421.212C1835.83 421.212 1826.88 437.747 1823.23 455.502L1815.65 492.226H1805.63L1818.98 427.126" fill="white"/>
<path d="M1923.54 484.033C1942.82 484.033 1952.67 463.535 1952.67 445.782C1952.67 431.977 1945.84 421.213 1931.74 421.213C1912.92 421.213 1902.9 443.661 1902.9 460.663C1902.9 473.551 1909.28 484.033 1923.54 484.033V484.033ZM1888.79 510.117C1896.37 515.125 1904.12 516.793 1912.46 516.793C1934.61 516.793 1940.54 505.873 1945.08 486.608L1946.3 480.991H1946C1939.17 488.574 1930.36 492.226 1920.05 492.226C1901.69 492.226 1892.43 477.358 1892.43 460.663C1892.43 436.235 1906.09 413.019 1931.88 413.019C1944.02 413.019 1954.49 418.02 1956.92 430.62H1957.23C1958.14 425.455 1959.35 420.152 1960.86 414.833H1970.43C1969.67 418.02 1968.31 423.942 1966.78 430.62L1955.25 483.878C1949.49 510.724 1943.88 525.001 1912.46 525.001C1903.51 525.001 1895.47 523.939 1886.22 519.835L1888.79 510.117Z" fill="white"/>
<path d="M1983.03 479.479H1995.47L1992.89 492.226H1980.45L1983.03 479.479Z" fill="white"/>
</g>
<defs>
<clipPath id="clip0">
<rect width="2000" height="525.001" fill="white"/>
</clipPath>
</defs>
</svg>
